<svg width="39" height="42" viewBox="0 0 39 42" fill="none" xmlns="http://www.w3.org/2000/svg">
<g filter="url(#filter0_ddi_120_3)">
<path d="M14.0625 5V12.1111M24.9375 5V10.3333M5 17.4444H34M19.5 37C16.2986 37 13.9095 34.1088 14.5724 31.0368L14.6848 30.5161C15.0789 28.6896 14.142 26.8368 12.4211 26.0393L8.60633 24.2713C6.40445 23.2508 5 21.0764 5 18.6878V7.90043C5 6.29856 6.32392 5 7.95708 5H31.0429C32.6761 5 34 6.29856 34 7.90043V18.6878C34 21.0764 32.5955 23.2508 30.3937 24.2713L26.5789 26.0393C24.8579 26.8368 23.9211 28.6896 24.3153 30.5161L24.4276 31.0368C25.0905 34.1088 22.7014 37 19.5 37Z" stroke="#63656D" stroke-width="3" stroke-linecap="round" stroke-linejoin="round" shape-rendering="crispEdges"/>
</g>
<defs>
<filter id="filter0_ddi_120_3" x="0.5" y="0.5" width="38" height="41" filterUnits="userSpaceOnUse" color-interpolation-filters="sRGB">
<feFlood flood-opacity="0" result="BackgroundImageFix"/>
<feColorMatrix in="SourceAlpha" type="matrix" values="0 0 0 0 0 0 0 0 0 0 0 0 0 0 0 0 0 0 127 0" result="hardAlpha"/>
<feOffset dx="1" dy="1"/>
<feGaussianBlur stdDeviation="1"/>
<feComposite in2="hardAlpha" operator="out"/>
<feColorMatrix type="matrix" values="0 0 0 0 1 0 0 0 0 1 0 0 0 0 1 0 0 0 0.25 0"/>
<feBlend mode="overlay" in2="BackgroundImageFix" result="effect1_dropShadow_120_3"/>
<feColorMatrix in="SourceAlpha" type="matrix" values="0 0 0 0 0 0 0 0 0 0 0 0 0 0 0 0 0 0 127 0" result="hardAlpha"/>
<feOffset dx="-1" dy="-1"/>
<feGaussianBlur stdDeviation="1"/>
<feComposite in2="hardAlpha" operator="out"/>
<feColorMatrix type="matrix" values="0 0 0 0 0 0 0 0 0 0 0 0 0 0 0 0 0 0 0.25 0"/>
<feBlend mode="overlay" in2="effect1_dropShadow_120_3" result="effect2_dropShadow_120_3"/>
<feBlend mode="normal" in="SourceGraphic" in2="effect2_dropShadow_120_3" result="shape"/>
<feColorMatrix in="SourceAlpha" type="matrix" values="0 0 0 0 0 0 0 0 0 0 0 0 0 0 0 0 0 0 127 0" result="hardAlpha"/>
<feOffset dx="1" dy="1"/>
<feGaussianBlur stdDeviation="0.5"/>
<feComposite in2="hardAlpha" operator="arithmetic" k2="-1" k3="1"/>
<feColorMatrix type="matrix" values="0 0 0 0 0 0 0 0 0 0 0 0 0 0 0 0 0 0 0.25 0"/>
<feBlend mode="overlay" in2="shape" result="effect3_innerShadow_120_3"/>
</filter>
</defs>
</svg>
